<?xml version="1.0" encoding="UTF-8"?><svg id="Layer_2" xmlns="http://www.w3.org/2000/svg" viewBox="0 0 51.56 18.52"><defs><style>.cls-1{fill:#28b152;}.cls-1,.cls-2{stroke-width:0px;}.cls-2{fill:#fff;}</style></defs><g id="Layer_2-2"><g id="Layer_2-2"><g id="Layer_1-2"><path class="cls-1" d="M46.13,4.4c1.26,0,2.16.71,2.45,1.77l-5.06.98c.06-1.75,1.1-2.75,2.61-2.75M46.57,10.38c-1.35,0-2.31-.52-2.76-1.54l7.68-1.48c-.02-3.31-2.43-5.23-5.37-5.23-3.2,0-5.56,2.23-5.56,5.32s2.33,5.32,5.93,5.32c1.87,0,3.32-.58,4.28-1.67l-1.6-1.73c-.71.68-1.51,1-2.61,1h0ZM39.18,10.01c-.35.25-.79.39-1.24.39-.81,0-1.27-.48-1.27-1.36v-4.21h2.56v-2.31h-2.56V0h-3.01v9.07c0,2.46,1.41,3.71,3.88,3.71.9,0,1.81-.21,2.43-.65l-.79-2.12h0ZM25.35,10.32c-1.51,0-2.66-1.08-2.66-2.86s1.16-2.86,2.66-2.86,2.64,1.08,2.64,2.86-1.16,2.86-2.64,2.86ZM27.93,2.28v1.1c-.75-.85-1.83-1.25-3.11-1.25-2.93,0-5.19,2.07-5.19,5.32s2.26,5.32,5.19,5.32c1.39,0,2.49-.44,3.24-1.35v1.19h2.87V2.29h-3.01.01ZM13.35,2.13c-1.56,0-2.91.63-3.74,1.69-.73-1.13-1.97-1.69-3.42-1.69-1.33,0-2.49.46-3.26,1.35v-1.19H.05v10.34h3.01v-5.19c0-1.84.95-2.71,2.28-2.71,1.26,0,1.97.77,1.97,2.44v5.46h3.01v-5.19c0-1.84.95-2.71,2.3-2.71,1.21,0,1.97.77,1.97,2.44v5.46h3.01v-5.92c0-3.15-1.77-4.58-4.25-4.58h0Z"/><path class="cls-2" d="M.31,15.55v.47c.12-.17.25-.31.41-.39s.34-.13.54-.13c.46,0,.75.19.87.56.1-.18.24-.32.42-.42.17-.1.37-.15.58-.15.62,0,.94.34.95,1.02v1.94h-.32v-1.92c0-.26-.06-.45-.17-.58-.11-.12-.29-.19-.54-.19-.23,0-.43.08-.59.22-.16.15-.25.32-.27.53v1.92h-.32v-1.94c0-.25-.06-.43-.18-.56-.12-.12-.29-.18-.53-.18-.2,0-.38.06-.52.17s-.25.29-.32.51v1.99h-.32v-2.91h.31s0,.04,0,.04Z"/><path class="cls-2" d="M7.15,18.45c-.03-.09-.05-.23-.06-.41-.11.15-.26.26-.43.34-.17.08-.36.12-.55.12-.28,0-.51-.08-.68-.23-.17-.16-.26-.35-.26-.59,0-.28.12-.51.35-.67.24-.16.56-.25.98-.25h.58v-.33c0-.21-.06-.37-.19-.49s-.31-.18-.56-.18c-.22,0-.41.06-.56.17-.15.12-.22.25-.22.41h-.32c0-.23.11-.43.32-.6s.48-.25.79-.25.58.08.77.24.28.39.29.68v1.38c0,.28.03.49.09.63v.03h-.34ZM6.14,18.22c.21,0,.41-.05.58-.16.17-.1.29-.24.37-.42v-.64h-.57c-.32,0-.57.06-.75.18-.18.11-.27.27-.27.47,0,.16.06.3.18.41s.28.16.47.16h0Z"/><path class="cls-2" d="M9.18,14.81v.74h.6v.26h-.6v1.94c0,.16.03.28.09.36s.16.12.29.12c.05,0,.14,0,.26-.03v.26c-.07.03-.19.04-.33.04-.22,0-.38-.06-.48-.19s-.15-.32-.15-.56v-1.94h-.53v-.26h.53v-.74s.32,0,.32,0Z"/><path class="cls-2" d="M12,18.51c-.25,0-.47-.06-.67-.18s-.35-.29-.47-.51-.17-.46-.17-.73v-.12c0-.28.05-.53.16-.75.11-.22.26-.4.45-.53s.4-.19.63-.19c.35,0,.63.12.84.36.21.24.31.57.31.99v.18h-2.07v.06c0,.33.09.6.28.82s.43.33.71.33c.17,0,.32-.03.46-.09.13-.06.25-.16.36-.3l.2.15c-.24.34-.58.51-1.03.51h.01ZM11.94,15.77c-.24,0-.45.09-.61.27-.17.18-.27.42-.3.71h1.74v-.04c0-.28-.09-.51-.24-.68-.15-.18-.35-.26-.59-.26Z"/><path class="cls-2" d="M15.97,18.45c-.03-.09-.05-.23-.06-.41-.11.15-.26.26-.43.34s-.36.12-.55.12c-.28,0-.51-.08-.68-.23-.17-.16-.26-.35-.26-.59,0-.28.12-.51.35-.67.24-.16.56-.25.98-.25h.58v-.33c0-.21-.06-.37-.19-.49s-.31-.18-.56-.18c-.22,0-.41.06-.56.17-.15.12-.22.25-.22.41h-.32c0-.23.11-.43.32-.6s.48-.25.79-.25.58.08.77.24c.19.16.28.39.29.68v1.38c0,.28.03.49.09.63v.03s-.34,0-.34,0ZM14.96,18.22c.21,0,.41-.05.58-.16.17-.1.29-.24.37-.42v-.64h-.57c-.32,0-.57.06-.75.18-.18.11-.27.27-.27.47,0,.16.06.3.18.41s.28.16.47.16h-.01Z"/><path class="cls-2" d="M17.74,18.45v-2.64h-.48v-.26h.48v-.35c0-.3.08-.53.23-.68s.36-.24.63-.24c.12,0,.24.02.34.05l-.02.27c-.09-.02-.19-.03-.29-.03-.18,0-.31.06-.41.17s-.15.27-.15.47v.36h.69v.26h-.69v2.64h-.32v-.02h0Z"/><path class="cls-2" d="M19.98,18.45v-2.64h-.48v-.26h.48v-.35c0-.3.08-.53.23-.68s.36-.24.63-.24c.12,0,.24.02.34.05l-.02.27c-.09-.02-.19-.03-.29-.03-.18,0-.31.06-.41.17s-.15.27-.15.47v.36h.69v.26h-.69v2.64h-.32v-.02h0Z"/><path class="cls-2" d="M21.98,14.71c0-.06.02-.11.06-.15.04-.04.09-.06.16-.06s.12.02.16.06c.04.04.06.09.06.15s-.02.11-.06.15c-.04.04-.09.06-.16.06s-.12-.02-.16-.06c-.04-.04-.06-.09-.06-.15ZM22.36,18.45h-.32v-2.91h.32v2.91Z"/><path class="cls-2" d="M24.01,18.45h-.32v-4.12h.32v4.12Z"/><path class="cls-2" d="M25.29,14.71c0-.06.02-.11.06-.15.04-.04.09-.06.16-.06s.12.02.16.06c.04.04.06.09.06.15s-.02.11-.06.15c-.04.04-.09.06-.16.06s-.12-.02-.16-.06c-.04-.04-.06-.09-.06-.15ZM25.67,18.45h-.32v-2.91h.32v2.91Z"/><path class="cls-2" d="M28.8,18.45c-.03-.09-.05-.23-.06-.41-.11.15-.26.26-.43.34s-.36.12-.55.12c-.28,0-.51-.08-.68-.23-.17-.16-.26-.35-.26-.59,0-.28.12-.51.35-.67.24-.16.56-.25.98-.25h.58v-.33c0-.21-.06-.37-.19-.49s-.31-.18-.56-.18c-.22,0-.41.06-.56.17-.15.12-.22.25-.22.41h-.32c0-.23.11-.43.32-.6s.48-.25.79-.25.58.08.77.24.28.39.29.68v1.38c0,.28.03.49.09.63v.03h-.34ZM27.79,18.22c.21,0,.41-.05.58-.16.17-.1.29-.24.37-.42v-.64h-.57c-.32,0-.57.06-.75.18-.18.11-.27.27-.27.47,0,.16.06.3.18.41s.28.16.47.16h-.01Z"/><path class="cls-2" d="M30.83,14.81v.74h.6v.26h-.6v1.94c0,.16.03.28.09.36s.16.12.29.12c.05,0,.14,0,.26-.03v.26c-.07.03-.19.04-.33.04-.22,0-.38-.06-.48-.19s-.15-.32-.15-.56v-1.94h-.53v-.26h.53v-.74s.32,0,.32,0Z"/><path class="cls-2" d="M33.65,18.51c-.25,0-.47-.06-.67-.18s-.35-.29-.47-.51-.17-.46-.17-.73v-.12c0-.28.05-.53.16-.75.11-.22.26-.4.45-.53s.4-.19.63-.19c.35,0,.63.12.84.36.21.24.31.57.31.99v.18h-2.07v.06c0,.33.09.6.28.82s.43.33.71.33c.17,0,.32-.03.46-.09.13-.06.25-.16.36-.3l.2.15c-.24.34-.58.51-1.03.51h0ZM33.59,15.77c-.24,0-.45.09-.61.27-.17.18-.27.42-.3.71h1.74v-.04c0-.28-.09-.51-.24-.68-.15-.18-.35-.26-.59-.26Z"/><path class="cls-2" d="M37.53,17.72c0-.16-.06-.29-.19-.38-.13-.1-.32-.17-.58-.23s-.46-.12-.6-.19-.25-.16-.32-.26-.1-.23-.1-.37c0-.23.1-.42.29-.57s.44-.22.74-.22c.32,0,.58.08.78.24.2.16.29.37.29.63h-.32c0-.17-.07-.31-.21-.42-.14-.11-.32-.17-.54-.17s-.38.05-.51.14c-.13.09-.19.22-.19.37s.05.26.16.34.3.15.58.22c.28.07.49.14.63.21s.25.17.31.27.1.23.1.38c0,.25-.1.44-.3.59s-.46.22-.77.22c-.34,0-.61-.08-.82-.25-.21-.16-.32-.37-.32-.62h.32c0,.19.09.33.24.44s.34.16.58.16c.22,0,.4-.05.54-.15s.21-.22.21-.37h0Z"/><path class="cls-2" d="M38.97,18.26c0-.06.02-.12.06-.16.04-.04.1-.07.17-.07s.13.02.17.07c.04.04.06.1.06.16s-.02.11-.06.15c-.04.04-.1.06-.17.06s-.13-.02-.17-.06c-.04-.04-.06-.09-.06-.15Z"/><path class="cls-2" d="M41.81,18.24c.22,0,.41-.06.56-.19.15-.13.23-.29.25-.49h.31c0,.18-.06.34-.17.48-.1.15-.24.26-.41.34s-.35.12-.54.12c-.38,0-.68-.13-.91-.4-.22-.26-.33-.62-.33-1.07v-.1c0-.29.05-.54.15-.76.1-.22.24-.39.43-.51s.41-.18.66-.18c.32,0,.58.09.79.28s.32.44.33.75h-.31c0-.23-.1-.41-.25-.55s-.34-.21-.57-.21c-.29,0-.52.1-.68.31s-.24.5-.24.88v.09c0,.37.08.66.24.87.16.21.39.31.68.31v.03h0Z"/><path class="cls-2" d="M43.81,16.96c0-.28.05-.53.16-.75.11-.22.26-.4.46-.52.2-.12.42-.19.67-.19.39,0,.7.13.94.41s.36.63.36,1.08v.07c0,.28-.05.53-.16.76s-.26.4-.46.52-.42.18-.67.18c-.38,0-.7-.14-.94-.41-.24-.27-.36-.63-.36-1.08v-.06h0ZM44.14,17.05c0,.35.09.63.27.86.18.22.42.33.71.33s.52-.11.71-.33c.18-.22.27-.52.27-.88v-.06c0-.22-.04-.42-.12-.61-.08-.18-.2-.33-.35-.43-.15-.1-.32-.15-.51-.15-.29,0-.52.11-.7.34-.18.22-.27.52-.27.88v.06h-.01Z"/><path class="cls-2" d="M47.79,15.55v.47c.12-.17.25-.31.41-.39s.34-.13.54-.13c.46,0,.75.19.87.56.1-.18.24-.32.42-.42.17-.1.37-.15.58-.15.62,0,.94.34.95,1.02v1.94h-.32v-1.92c0-.26-.06-.45-.17-.58-.11-.12-.29-.19-.54-.19-.23,0-.43.08-.59.22-.16.15-.25.32-.27.53v1.92h-.32v-1.94c0-.25-.06-.43-.18-.56-.12-.12-.29-.18-.53-.18-.2,0-.38.06-.52.17s-.25.29-.32.51v1.99h-.32v-2.91h.31s0,.04,0,.04Z"/></g></g></g></svg>